<svg width="207" height="193" viewBox="0 0 207 193" fill="none" xmlns="http://www.w3.org/2000/svg">
<mask id="path-1-inside-1_53_200" fill="white">
<path d="M95.3309 106.155C100.05 89.0669 116.552 76.8613 135.561 78.8793C153.658 80.7996 168.044 96.0648 168.955 114.227C169.183 119.011 168.532 123.601 167.133 127.865C166.286 130.468 163.748 132.194 160.981 132.194H64.0454C47.615 132.194 35.2922 117.159 38.5145 101.048L58.3234 2H97.3815L110.401 24.7839L82.5069 44.736L74.5976 34.5484"/>
</mask>
<path d="M135.561 78.8793L135.455 79.8737L135.455 79.8737L135.561 78.8793ZM168.955 114.227L169.954 114.179L169.954 114.177L168.955 114.227ZM167.133 127.865L166.183 127.553L166.182 127.555L167.133 127.865ZM38.5145 101.048L39.4951 101.244H39.4951L38.5145 101.048ZM58.3234 2V1H57.5036L57.3428 1.80389L58.3234 2ZM97.3815 2L98.2497 1.50386L97.9618 1H97.3815V2ZM110.401 24.7839L110.983 25.5972L111.717 25.0718L111.269 24.2877L110.401 24.7839ZM82.5069 44.736L81.717 45.3493L82.3066 46.1087L83.0887 45.5494L82.5069 44.736ZM96.2949 106.421C100.889 89.7875 116.951 77.9092 135.455 79.8737L135.666 77.8849C116.154 75.8133 99.2121 88.3463 94.367 105.889L96.2949 106.421ZM135.455 79.8737C153.061 81.7419 167.07 96.6049 167.957 114.277L169.954 114.177C169.018 95.5247 154.255 79.8573 135.666 77.8849L135.455 79.8737ZM167.957 114.274C168.179 118.937 167.544 123.405 166.183 127.553L168.083 128.176C169.52 123.797 170.188 119.086 169.954 114.179L167.957 114.274ZM166.182 127.555C165.479 129.717 163.348 131.194 160.981 131.194V133.194C164.148 133.194 167.094 131.22 168.084 128.174L166.182 127.555ZM160.981 131.194H64.0454V133.194H160.981V131.194ZM64.0454 131.194C48.2462 131.194 36.3965 116.737 39.4951 101.244L37.5339 100.852C34.1879 117.582 46.9838 133.194 64.0454 133.194V131.194ZM39.4951 101.244L59.304 2.19611L57.3428 1.80389L37.5339 100.852L39.4951 101.244ZM58.3234 3H97.3815V1H58.3234V3ZM96.5133 2.49614L109.533 25.28L111.269 24.2877L98.2497 1.50386L96.5133 2.49614ZM109.819 23.9705L81.9251 43.9227L83.0887 45.5494L110.983 25.5972L109.819 23.9705ZM83.2968 44.1228L75.3875 33.9351L73.8077 35.1616L81.717 45.3493L83.2968 44.1228Z" fill="white" mask="url(#path-1-inside-1_53_200)"/>
<path d="M95.3309 106.155C100.05 89.0669 116.552 76.8613 135.561 78.8793C153.658 80.7996 168.044 96.0648 168.955 114.227C169.183 119.011 168.532 123.601 167.133 127.865C166.286 130.468 163.748 132.194 160.981 132.194H64.0454C47.615 132.194 35.2922 117.159 38.5145 101.048L58.3234 2H97.3815L110.401 24.7839L82.5069 44.736L74.5976 34.5484M82.5394 44.736L97.3815 99.6451" stroke="white" stroke-width="4" stroke-miterlimit="2" stroke-linecap="round" stroke-linejoin="round"/>
<path d="M19.008 161.914C18.552 161.074 17.892 160.438 17.028 160.006C16.188 159.55 15.192 159.322 14.04 159.322C12.048 159.322 10.452 159.982 9.252 161.302C8.052 162.598 7.452 164.338 7.452 166.522C7.452 168.85 8.076 170.674 9.324 171.994C10.596 173.29 12.336 173.938 14.544 173.938C16.056 173.938 17.328 173.554 18.36 172.786C19.416 172.018 20.184 170.914 20.664 169.474H12.852V164.938H26.244V170.662C25.788 172.198 25.008 173.626 23.904 174.946C22.824 176.266 21.444 177.334 19.764 178.15C18.084 178.966 16.188 179.374 14.076 179.374C11.58 179.374 9.348 178.834 7.38 177.754C5.436 176.65 3.912 175.126 2.808 173.182C1.728 171.238 1.188 169.018 1.188 166.522C1.188 164.026 1.728 161.806 2.808 159.862C3.912 157.894 5.436 156.37 7.38 155.29C9.324 154.186 11.544 153.634 14.04 153.634C17.064 153.634 19.608 154.366 21.672 155.83C23.76 157.294 25.14 159.322 25.812 161.914H19.008ZM50.1739 159.106L37.5739 188.734H30.9499L35.5579 178.51L27.3859 159.106H34.2619L38.9059 171.67L43.5139 159.106H50.1739ZM78.032 158.89C80.528 158.89 82.508 159.646 83.972 161.158C85.46 162.67 86.204 164.77 86.204 167.458V179.194H80.084V168.286C80.084 166.99 79.736 165.994 79.04 165.298C78.368 164.578 77.432 164.218 76.232 164.218C75.032 164.218 74.084 164.578 73.388 165.298C72.716 165.994 72.38 166.99 72.38 168.286V179.194H66.26V168.286C66.26 166.99 65.912 165.994 65.216 165.298C64.544 164.578 63.608 164.218 62.408 164.218C61.208 164.218 60.26 164.578 59.564 165.298C58.892 165.994 58.556 166.99 58.556 168.286V179.194H52.4V159.106H58.556V161.626C59.18 160.786 59.996 160.126 61.004 159.646C62.012 159.142 63.152 158.89 64.424 158.89C65.936 158.89 67.28 159.214 68.456 159.862C69.656 160.51 70.592 161.434 71.264 162.634C71.96 161.53 72.908 160.63 74.108 159.934C75.308 159.238 76.616 158.89 78.032 158.89Z" fill="#00B2FF"/>
<path d="M94.3253 163.138C94.9973 161.962 95.9813 161.002 97.2773 160.258C98.5733 159.514 100.049 159.142 101.705 159.142C103.481 159.142 105.077 159.562 106.493 160.402C107.909 161.242 109.025 162.43 109.841 163.966C110.657 165.478 111.065 167.242 111.065 169.258C111.065 171.25 110.657 173.026 109.841 174.586C109.025 176.146 107.897 177.358 106.457 178.222C105.041 179.086 103.457 179.518 101.705 179.518C100.001 179.518 98.5013 179.146 97.2053 178.402C95.9333 177.658 94.9733 176.71 94.3253 175.558V179.194H91.0493V152.554H94.3253V163.138ZM107.717 169.258C107.717 167.77 107.417 166.474 106.817 165.37C106.217 164.266 105.401 163.426 104.369 162.85C103.361 162.274 102.245 161.986 101.021 161.986C99.8213 161.986 98.7053 162.286 97.6733 162.886C96.6653 163.462 95.8493 164.314 95.2253 165.442C94.6253 166.546 94.3253 167.83 94.3253 169.294C94.3253 170.782 94.6253 172.09 95.2253 173.218C95.8493 174.322 96.6653 175.174 97.6733 175.774C98.7053 176.35 99.8213 176.638 101.021 176.638C102.245 176.638 103.361 176.35 104.369 175.774C105.401 175.174 106.217 174.322 106.817 173.218C107.417 172.09 107.717 170.77 107.717 169.258ZM132.873 159.466V179.194H129.597V176.278C128.973 177.286 128.097 178.078 126.969 178.654C125.865 179.206 124.641 179.482 123.297 179.482C121.761 179.482 120.381 179.17 119.157 178.546C117.933 177.898 116.961 176.938 116.241 175.666C115.545 174.394 115.197 172.846 115.197 171.022V159.466H118.437V170.59C118.437 172.534 118.929 174.034 119.913 175.09C120.897 176.122 122.241 176.638 123.945 176.638C125.697 176.638 127.077 176.098 128.085 175.018C129.093 173.938 129.597 172.366 129.597 170.302V159.466H132.873ZM137.181 169.258C137.181 167.242 137.589 165.478 138.405 163.966C139.221 162.43 140.337 161.242 141.753 160.402C143.193 159.562 144.801 159.142 146.577 159.142C148.113 159.142 149.541 159.502 150.861 160.222C152.181 160.918 153.189 161.842 153.885 162.994V152.554H157.197V179.194H153.885V175.486C153.237 176.662 152.277 177.634 151.005 178.402C149.733 179.146 148.245 179.518 146.541 179.518C144.789 179.518 143.193 179.086 141.753 178.222C140.337 177.358 139.221 176.146 138.405 174.586C137.589 173.026 137.181 171.25 137.181 169.258ZM153.885 169.294C153.885 167.806 153.585 166.51 152.985 165.406C152.385 164.302 151.569 163.462 150.537 162.886C149.529 162.286 148.413 161.986 147.189 161.986C145.965 161.986 144.849 162.274 143.841 162.85C142.833 163.426 142.029 164.266 141.429 165.37C140.829 166.474 140.529 167.77 140.529 169.258C140.529 170.77 140.829 172.09 141.429 173.218C142.029 174.322 142.833 175.174 143.841 175.774C144.849 176.35 145.965 176.638 147.189 176.638C148.413 176.638 149.529 176.35 150.537 175.774C151.569 175.174 152.385 174.322 152.985 173.218C153.585 172.09 153.885 170.782 153.885 169.294ZM161.509 169.258C161.509 167.242 161.917 165.478 162.733 163.966C163.549 162.43 164.665 161.242 166.081 160.402C167.521 159.562 169.129 159.142 170.905 159.142C172.441 159.142 173.869 159.502 175.189 160.222C176.509 160.918 177.517 161.842 178.213 162.994V152.554H181.525V179.194H178.213V175.486C177.565 176.662 176.605 177.634 175.333 178.402C174.061 179.146 172.573 179.518 170.869 179.518C169.117 179.518 167.521 179.086 166.081 178.222C164.665 177.358 163.549 176.146 162.733 174.586C161.917 173.026 161.509 171.25 161.509 169.258ZM178.213 169.294C178.213 167.806 177.913 166.51 177.313 165.406C176.713 164.302 175.897 163.462 174.865 162.886C173.857 162.286 172.741 161.986 171.517 161.986C170.293 161.986 169.177 162.274 168.169 162.85C167.161 163.426 166.357 164.266 165.757 165.37C165.157 166.474 164.857 167.77 164.857 169.258C164.857 170.77 165.157 172.09 165.757 173.218C166.357 174.322 167.161 175.174 168.169 175.774C169.177 176.35 170.293 176.638 171.517 176.638C172.741 176.638 173.857 176.35 174.865 175.774C175.897 175.174 176.713 174.322 177.313 173.218C177.913 172.09 178.213 170.782 178.213 169.294ZM204.053 159.466L192.173 188.482H188.789L192.677 178.978L184.721 159.466H188.357L194.549 175.45L200.669 159.466H204.053Z" fill="white"/>
</svg>
